<!DOCTYPE svg PUBLIC "-//W3C//DTD SVG 1.1//EN" "http://www.w3.org/Graphics/SVG/1.1/DTD/svg11.dtd">
<!-- Uploaded to: SVG Repo, www.svgrepo.com, Transformed by: SVG Repo Mixer Tools -->
<svg fill="#77767b" height="800px" width="800px" version="1.1" id="Capa_1" xmlns="http://www.w3.org/2000/svg" xmlns:xlink="http://www.w3.org/1999/xlink" viewBox="0 0 486 486" xml:space="preserve">
<g id="SVGRepo_bgCarrier" stroke-width="0"/>
<g id="SVGRepo_tracerCarrier" stroke-linecap="round" stroke-linejoin="round"/>
<g id="SVGRepo_iconCarrier"> <g> <g> <path d="M451.6,388c-57.3-47.1-119.1-78.3-131.7-84.5c-1.4-0.7-2.3-2.1-2.3-3.7v-89.2c11.2-7.5,18.6-20.2,18.6-34.7V83.3 c0-46-37.3-83.3-83.3-83.3h-10h-10c-46,0-83.3,37.3-83.3,83.3v92.5c0,14.5,7.4,27.2,18.6,34.7v89.2c0,1.6-0.9,3-2.3,3.7 c-12.6,6.2-74.4,37.4-131.7,84.5C24,396.5,18,409.2,18,422.6V486h225h225v-63.4C468,409.2,462,396.5,451.6,388z"/> </g> </g> </g>
</svg>